<svg xmlns="http://www.w3.org/2000/svg" xmlns:xlink="http://www.w3.org/1999/xlink" width="424" height="82" version="1.1" viewBox="0 0 424 82"><title>长款的 svg 格式的白底</title><g id="长款的-svg-格式的白底" fill="none" fill-rule="evenodd" stroke="none" stroke-width="1"><rect id="矩形" width="424" height="82" x="0" y="0" fill="#FFF"/><rect id="矩形" width="412" height="66" x="6" y="8" fill="#FFF"/><text id="Spring-Cloud-Tencent" fill="#000" font-family="TencentSansW7, TencentSans" font-size="34" font-weight="bold" letter-spacing="-.503"><tspan x="83.843" y="49.826">Spring Cloud Tencent</tspan></text><polygon id="路径-2备份-10" fill="#95D2F7" points="43.921 11.826 43.921 21.826 52.61 16.826"/><polygon id="矩形备份-25" fill="#7F98FF" points="24.983 32.349 48.843 46.174 48.843 73.826 24.983 60"/><polygon id="矩形备份-26" fill="#7F98FF" points="43.843 8 67.702 21.826 67.702 50.826 43.843 37" transform="translate(55.772590, 29.412755) scale(-1, 1) translate(-55.772590, -29.412755)"/><polygon id="矩形备份-27" fill="#95D2F7" points="24.983 10.523 43.967 21.523 24.983 32.523 6 21.523" transform="translate(24.983346, 21.523467) scale(-1, 1) translate(-24.983346, -21.523467)"/><polygon id="路径-3" fill="#4065FF" points="43.843 43.298 43.843 50.826 48.843 47.98 48.843 46.174"/></g></svg>